<svg xmlns="http://www.w3.org/2000/svg" version="1.1" xmlnsXlink="http://www.w3.org/1999/xlink" xmlnsSvgjs="http://svgjs.dev/svgjs" width="2000" height="2250" viewBox="0 0 2000 2250"><g transform="matrix(1,0,0,1,0,0)"><svg viewBox="0 0 320 360" data-background-color="#ffffff" preserveAspectRatio="xMidYMid meet" height="2250" width="2000" xmlns="http://www.w3.org/2000/svg" xmlnsXlink="http://www.w3.org/1999/xlink"><g id="tight-bounds" transform="matrix(1,0,0,1,0,0)"><svg viewBox="0 0 320 360" height="360" width="320"><g><svg></svg></g><g><svg viewBox="0 0 320 360" height="360" width="320"><g><path d="M160 42.18c72.417 0 131.943 56.114 137.63 127.014h22.37c-1.137-17.82-5.308-34.882-12.133-51.185-7.962-18.957-19.716-36.398-34.502-50.805-14.787-14.787-31.848-26.161-50.806-34.503-20.095-8.341-40.948-12.891-62.559-12.891-21.611 0-42.464 4.171-62.559 12.512-18.957 7.962-36.398 19.716-50.806 34.503-14.787 14.787-26.161 31.848-34.502 50.805-6.825 16.303-10.995 33.744-12.133 51.185h22.37c5.687-70.521 65.213-126.635 137.63-126.635zM160 318.199c-72.417 0-131.943-56.114-137.63-127.014h-22.37c1.137 17.82 5.308 34.882 12.133 51.185 7.962 18.957 19.716 36.398 34.502 50.805 14.787 14.787 31.848 26.161 50.806 34.503 19.716 8.341 40.569 12.512 62.559 12.512 21.991 0 42.464-4.171 62.559-12.512 18.957-7.962 36.398-19.716 50.806-34.503 14.787-14.787 26.161-31.848 34.502-50.805 6.825-16.303 10.995-33.744 12.133-51.185h-22.37c-5.687 70.9-65.213 127.014-137.63 127.014z" fill="#c53683" fill-rule="nonzero" stroke="none" stroke-width="1" stroke-linecap="butt" stroke-linejoin="miter" stroke-miterlimit="10" stroke-dasharray="" stroke-dashoffset="0" font-family="none" font-weight="none" font-size="none" text-anchor="none" style="mix-blend-mode: normal" data-fill-palette-color="tertiary"></path></g><g transform="matrix(1,0,0,1,56,104.70321361058602)"><svg viewBox="0 0 208 150.59357277882796" height="150.59357277882796" width="208"><g><svg viewBox="0 0 208 150.59357277882796" height="150.59357277882796" width="208"><g><svg viewBox="0 0 208 150.59357277882796" height="150.59357277882796" width="208"><g id="textblocktransform"><svg viewBox="0 0 208 150.59357277882796" height="150.59357277882796" width="208" id="textblock"><g><svg viewBox="0 0 208 150.59357277882796" height="150.59357277882796" width="208"><g transform="matrix(1,0,0,1,0,0)"><svg width="208" viewBox="2.35 -37.5 52.9 38.300000000000004" height="150.59357277882796" data-palette-color="#c53683"><g class="wordmark-text-0" data-fill-palette-color="primary" id="text-0"><path d="M27.75-9L29-8.5Q27.7-3.95 24.2-1.58 20.7 0.8 15.95 0.8L15.95 0.8Q9.5 0.8 5.93-3.75 2.35-8.3 2.35-17.5L2.35-17.5Q2.35-20.95 2.95-24.5 3.55-28.05 5.05-30.93 6.55-33.8 9.08-35.65 11.6-37.5 15.45-37.5L15.45-37.5Q17.35-37.5 19.05-37 20.75-36.5 22.03-35.52 23.3-34.55 24.05-33.1 24.8-31.65 24.8-29.7L24.8-29.7Q24.8-28.1 24.2-27.15 23.6-26.2 22.15-26.2L22.15-26.2Q21.45-26.2 20.83-26.43 20.2-26.65 19.8-27.1L19.8-27.1Q20.25-27.45 20.63-28.55 21-29.65 21-31.05L21-31.05Q21-33.45 19.85-34.58 18.7-35.7 16.8-35.7L16.8-35.7Q14.55-35.7 12.93-34.23 11.3-32.75 10.25-30.3 9.2-27.85 8.72-24.75 8.25-21.65 8.25-18.35L8.25-18.35Q8.25-14.25 8.95-11.35 9.65-8.45 11-6.6 12.35-4.75 14.33-3.88 16.3-3 18.85-3L18.85-3Q22.1-3 24.25-4.42 26.4-5.85 27.75-9L27.75-9ZM36.85-32.05L42.25-32.8 42.25-15.8Q44.45-15.8 46.02-16.73 47.6-17.65 48.6-19.1 49.6-20.55 50.07-22.38 50.55-24.2 50.55-26L50.55-26Q50.55-27.6 50.22-29.3 49.9-31 48.85-32.43 47.8-33.85 45.85-34.77 43.9-35.7 40.65-35.7L40.65-35.7Q38.45-35.7 36.5-35.02 34.55-34.35 33.12-33.08 31.7-31.8 30.87-29.93 30.05-28.05 30.05-25.6L30.05-25.6Q30.05-24.05 30.3-23 30.55-21.95 30.9-21.25 31.25-20.55 31.6-20.18 31.95-19.8 32.15-19.65L32.15-19.65Q29.35-19.65 27.75-21.05 26.15-22.45 26.15-25.7L26.15-25.7Q26.15-28.1 27.4-30.23 28.65-32.35 30.75-33.98 32.85-35.6 35.6-36.55 38.35-37.5 41.4-37.5L41.4-37.5Q44.7-37.5 47.3-36.68 49.9-35.85 51.65-34.38 53.4-32.9 54.32-30.95 55.25-29 55.25-26.75L55.25-26.75Q55.25-24.65 54.5-22.43 53.75-20.2 52.25-18.4 50.75-16.6 48.52-15.43 46.3-14.25 43.35-14.25L43.35-14.25 42.25-14.25 42.25 0 36.85 0 36.85-32.05Z" fill="#c53683" data-fill-palette-color="primary"></path></g></svg></g></svg></g></svg></g></svg></g></svg></g></svg></g></svg></g><defs></defs></svg><rect width="320" height="360" fill="none" stroke="none" visibility="hidden"></rect></g></svg></g></svg>
