<svg width="8" height="6" viewBox="0 0 8 6" fill="none" xmlns="http://www.w3.org/2000/svg">
<path d="M3.72598 5.52296C3.75656 5.56737 3.79748 5.60369 3.84521 5.62878C3.89294 5.65386 3.94606 5.66697 3.99998 5.66697C4.0539 5.66697 4.10702 5.65386 4.15475 5.62878C4.20248 5.60369 4.2434 5.56737 4.27398 5.52296L7.27398 1.18963C7.3087 1.13965 7.32907 1.0811 7.33286 1.02036C7.33665 0.959619 7.32372 0.899 7.29547 0.845091C7.26723 0.791181 7.22475 0.746042 7.17266 0.714579C7.12056 0.683115 7.06084 0.666531 6.99998 0.666626H0.999979C0.93926 0.666877 0.879758 0.683675 0.827872 0.715214C0.775987 0.746753 0.73368 0.791839 0.705502 0.845624C0.677324 0.899409 0.664341 0.959858 0.667949 1.02047C0.671557 1.08108 0.691619 1.13956 0.725979 1.18963L3.72598 5.52296Z" fill="black"/>
</svg>
