<svg width="22" height="22" viewBox="0 0 22 22" fill="none" xmlns="http://www.w3.org/2000/svg">
<g clip-path="url(#clip0_202_4)">
<path d="M2.57884 14.1778L1.41773 19.1889C1.37767 19.3721 1.37905 19.5619 1.42175 19.7445C1.46445 19.9271 1.5474 20.0978 1.66453 20.2442C1.78167 20.3906 1.93004 20.509 2.0988 20.5908C2.26756 20.6725 2.45244 20.7155 2.63995 20.7167C2.72732 20.7255 2.81536 20.7255 2.90273 20.7167L7.94439 19.5556L17.6244 9.91222L12.2222 4.52222L2.57884 14.1778Z" fill="black"/>
<path d="M20.6679 5.0844L17.0623 1.47884C16.8253 1.24299 16.5045 1.1106 16.1701 1.1106C15.8357 1.1106 15.5149 1.24299 15.2779 1.47884L13.2734 3.48329L18.6695 8.8794L20.674 6.87495C20.7913 6.75706 20.8842 6.61719 20.9474 6.46335C21.0106 6.30951 21.0428 6.14472 21.0422 5.97841C21.0417 5.8121 21.0083 5.64753 20.9441 5.49413C20.8798 5.34072 20.786 5.20149 20.6679 5.0844V5.0844Z" fill="black"/>
</g>
<defs>
<clipPath id="clip0_202_4">
<rect width="22" height="22" fill="white"/>
</clipPath>
</defs>
</svg>
