<svg width="22" height="22" viewBox="0 0 22 22" fill="none" xmlns="http://www.w3.org/2000/svg">
<path d="M10.989 0C4.917 0 0 4.928 0 11C0 17.072 4.917 22 10.989 22C17.072 22 22 17.072 22 11C22 4.928 17.072 0 10.989 0ZM18.612 6.6H15.367C15.0227 5.2376 14.5129 3.92249 13.849 2.684C15.8555 3.3748 17.5463 4.7649 18.612 6.6ZM11 2.244C11.913 3.564 12.628 5.027 13.101 6.6H8.899C9.372 5.027 10.087 3.564 11 2.244ZM2.486 13.2C2.31 12.496 2.2 11.759 2.2 11C2.2 10.241 2.31 9.504 2.486 8.8H6.204C6.116 9.526 6.05 10.252 6.05 11C6.05 11.748 6.116 12.474 6.204 13.2H2.486ZM3.388 15.4H6.633C6.985 16.775 7.491 18.095 8.151 19.316C6.14236 18.629 4.45042 17.2379 3.388 15.4V15.4ZM6.633 6.6H3.388C4.45042 4.7621 6.14236 3.37103 8.151 2.684C7.48707 3.92249 6.97728 5.2376 6.633 6.6V6.6ZM11 19.756C10.087 18.436 9.372 16.973 8.899 15.4H13.101C12.628 16.973 11.913 18.436 11 19.756ZM13.574 13.2H8.426C8.327 12.474 8.25 11.748 8.25 11C8.25 10.252 8.327 9.515 8.426 8.8H13.574C13.673 9.515 13.75 10.252 13.75 11C13.75 11.748 13.673 12.474 13.574 13.2ZM13.849 19.316C14.509 18.095 15.015 16.775 15.367 15.4H18.612C17.5463 17.2351 15.8555 18.6252 13.849 19.316V19.316ZM15.796 13.2C15.884 12.474 15.95 11.748 15.95 11C15.95 10.252 15.884 9.526 15.796 8.8H19.514C19.69 9.504 19.8 10.241 19.8 11C19.8 11.759 19.69 12.496 19.514 13.2H15.796Z" fill="black"/>
</svg>
