<svg width="24" height="22" viewBox="0 0 24 22" fill="none" xmlns="http://www.w3.org/2000/svg">
<path d="M6 1.83337H15C15.5304 1.83337 16.0391 2.02653 16.4142 2.37034C16.7893 2.71416 17 3.18048 17 3.66671V5.50004H15V3.66671H6V18.3334H15V16.5H17V18.3334C17 18.8196 16.7893 19.2859 16.4142 19.6297C16.0391 19.9736 15.5304 20.1667 15 20.1667H6C5.46957 20.1667 4.96086 19.9736 4.58579 19.6297C4.21071 19.2859 4 18.8196 4 18.3334V3.66671C4 3.18048 4.21071 2.71416 4.58579 2.37034C4.96086 2.02653 5.46957 1.83337 6 1.83337V1.83337Z" fill="black"/>
<path d="M16.09 14.2908L17.5 15.5833L22.5 11L17.5 6.41663L16.09 7.70913L18.67 10.0833H9V11.9166H18.67L16.09 14.2908Z" fill="black"/>
</svg>
