<svg width="17" height="22" viewBox="0 0 17 22" fill="none" xmlns="http://www.w3.org/2000/svg">
<path d="M16.5 6.1875V19.25C16.5 19.9793 16.2103 20.6788 15.6945 21.1945C15.1788 21.7103 14.4793 22 13.75 22H2.75C2.02065 22 1.32118 21.7103 0.805456 21.1945C0.289731 20.6788 0 19.9793 0 19.25V2.75C0 2.02065 0.289731 1.32118 0.805456 0.805456C1.32118 0.289731 2.02065 0 2.75 0H10.3125L16.5 6.1875ZM12.375 6.1875C11.828 6.1875 11.3034 5.9702 10.9166 5.58341C10.5298 5.19661 10.3125 4.67201 10.3125 4.125V1.375H2.75C2.38533 1.375 2.03559 1.51987 1.77773 1.77773C1.51987 2.03559 1.375 2.38533 1.375 2.75V19.25C1.375 19.6147 1.51987 19.9644 1.77773 20.2223C2.03559 20.4801 2.38533 20.625 2.75 20.625H13.75C14.1147 20.625 14.4644 20.4801 14.7223 20.2223C14.9801 19.9644 15.125 19.6147 15.125 19.25V6.1875H12.375Z" fill="black"/>
<path d="M2.75 8.9375C2.75 8.75516 2.82243 8.5803 2.95136 8.45136C3.0803 8.32243 3.25516 8.25 3.4375 8.25H13.0625C13.2448 8.25 13.4197 8.32243 13.5486 8.45136C13.6776 8.5803 13.75 8.75516 13.75 8.9375V18.5625C13.75 18.7448 13.6776 18.9197 13.5486 19.0486C13.4197 19.1776 13.2448 19.25 13.0625 19.25H3.4375C3.25516 19.25 3.0803 19.1776 2.95136 19.0486C2.82243 18.9197 2.75 18.7448 2.75 18.5625V8.9375ZM2.75 4.8125C2.75 4.63016 2.82243 4.4553 2.95136 4.32636C3.0803 4.19743 3.25516 4.125 3.4375 4.125H6.875C7.05734 4.125 7.2322 4.19743 7.36114 4.32636C7.49007 4.4553 7.5625 4.63016 7.5625 4.8125C7.5625 4.99484 7.49007 5.1697 7.36114 5.29864C7.2322 5.42757 7.05734 5.5 6.875 5.5H3.4375C3.25516 5.5 3.0803 5.42757 2.95136 5.29864C2.82243 5.1697 2.75 4.99484 2.75 4.8125Z" fill="black"/>
</svg>
