<svg width="16" height="22" viewBox="0 0 16 22" fill="none" xmlns="http://www.w3.org/2000/svg">
<path d="M0 22H15.7143V18.0714C15.7126 16.6132 15.1326 15.2153 14.1015 14.1842C13.0704 13.1531 11.6725 12.5731 10.2143 12.5714H5.5C4.04182 12.5731 2.64384 13.1531 1.61275 14.1842C0.581661 15.2153 0.00166364 16.6132 0 18.0714V22ZM2.35714 5.5C2.35714 6.5878 2.67971 7.65117 3.28406 8.55564C3.88841 9.46011 4.74739 10.1651 5.75238 10.5813C6.75738 10.9976 7.86324 11.1065 8.93014 10.8943C9.99704 10.6821 10.977 10.1583 11.7462 9.38909C12.5154 8.6199 13.0392 7.63989 13.2515 6.573C13.4637 5.5061 13.3548 4.40023 12.9385 3.39524C12.5222 2.39025 11.8172 1.53126 10.9128 0.926917C10.0083 0.322569 8.94494 0 7.85714 0C6.39845 0 4.99951 0.579463 3.96806 1.61091C2.93661 2.64236 2.35714 4.04131 2.35714 5.5V5.5Z" fill="black"/>
</svg>
